<svg width="32" height="32" viewBox="0 0 32 32" fill="none" xmlns="http://www.w3.org/2000/svg">
<g clip-path="url(#clip0_143_2960)">
<path d="M19.5151 11.952C18.8371 11.952 18.3351 12.123 17.9421 12.339C17.8791 12.115 17.6721 11.951 17.4281 12H14.4441C14.1491 11.951 13.9101 12.19 14.0011 12.5V23.5C13.9101 23.78 14.1491 24.02 14.4441 24H17.4281C17.7231 24.02 17.9621 23.78 17.9621 23.485L17.9611 16.837C17.9601 16.834 17.9491 16.516 18.1501 16.297C18.3111 16.123 18.5881 16.034 18.9711 16.034C19.6091 16.034 19.8931 16.295 19.9991 16.879V23.485C19.8941 23.78 20.1331 24.02 20.4281 24H23.5731C23.8681 24.02 24.1071 23.78 24.0011 23.485V16.657C24.1061 13.185 21.6331 11.952 19.5151 11.952V11.952ZM23.0381 23H20.9621V16.879C20.9621 15.698 20.1991 14.966 18.9721 14.966C18.2781 14.966 17.7381 15.17 17.3661 15.572C16.8491 16.132 16.8891 16.842 17.0001 17V23H14.9781V13.02H16.8941V13.356C16.8933 13.4561 16.9208 13.5544 16.9733 13.6396C17.0259 13.7247 17.1014 13.7934 17.1912 13.8375C17.2811 13.8817 17.3815 13.8997 17.4811 13.8893C17.5806 13.879 17.6753 13.8407 17.7541 13.779L17.8941 13.671C18.2991 13.352 18.7181 13.021 19.5161 13.021C20.3421 13.021 23.0391 13.284 23.0391 16.658V23H23.0381ZM11.0001 6.966C9.87806 6.966 8.96606 7.878 8.96606 9C8.96606 10.122 9.87806 11.034 11.0001 11.034C12.1221 11.034 13.0341 10.122 13.0341 9C13.0341 7.878 12.1221 6.966 11.0001 6.966ZM11.0001 9.966C10.4681 9.966 10.0341 9.532 10.0341 9C10.0341 8.468 10.4681 8.034 11.0001 8.034C11.5321 8.034 11.9661 8.468 11.9661 9C11.9661 9.532 11.5321 9.966 11.0001 9.966ZM12.4281 11.951H9.46006C9.16506 11.951 8.92606 12.19 9.00006 12.5V23.5C8.92606 23.78 9.16506 24.02 9.46006 24H12.4281C12.7231 24.02 12.9621 23.78 12.9621 23.485V12.485C12.9621 12.3434 12.9058 12.2076 12.8057 12.1074C12.7055 12.0073 12.5697 11.951 12.4281 11.951ZM12.0001 23H9.99407V13.02H12.0001V23Z" fill="black"/>
<path d="M16.0001 -0.0339966C7.15806 -0.0339966 -0.0339355 7.158 -0.0339355 16C-0.0339355 24.842 7.15806 32.034 16.0001 32.034C24.8421 32.034 32.0341 24.842 32.0341 16C32.0341 7.158 24.8421 -0.0339966 16.0001 -0.0339966ZM16.0001 30.966C7.74806 30.966 1.03406 24.252 1.03406 16C1.03406 7.748 7.74806 1.034 16.0001 1.034C24.2521 1.034 30.9661 7.748 30.9661 16C30.9661 24.252 24.2521 30.966 16.0001 30.966Z" fill="black"/>
</g>
<defs>
<clipPath id="clip0_143_2960">
<rect width="32" height="32" fill="white"/>
</clipPath>
</defs>
</svg>
