<svg width="24" height="24" viewBox="0 0 24 24" fill="none" xmlns="http://www.w3.org/2000/svg">
<path d="M19.3334 3.66667H4.66669C4.1144 3.66667 3.66669 4.11438 3.66669 4.66666V19.3333C3.66669 19.8856 4.1144 20.3333 4.66669 20.3333H19.3334C19.8856 20.3333 20.3334 19.8856 20.3334 19.3333V4.66666C20.3334 4.11438 19.8856 3.66667 19.3334 3.66667Z" fill="#61B2E4"/>
<path d="M6.66669 10H8.66669V17H6.66669V10Z" fill="white"/>
<path d="M7.66668 8.5C8.31101 8.5 8.83335 7.97766 8.83335 7.33333C8.83335 6.689 8.31101 6.16667 7.66668 6.16667C7.02235 6.16667 6.50002 6.689 6.50002 7.33333C6.50002 7.97766 7.02235 8.5 7.66668 8.5Z" fill="white"/>
<path d="M14.1667 11.6667C13.4303 11.6667 12.8333 12.056 12.8333 13.1667V17H10.8333V10H12.8333V10.7367H12.8327C13.0827 10.4524 13.3905 10.2248 13.7355 10.069C14.0805 9.91325 14.4548 9.83289 14.8333 9.83333C16.306 9.83333 17.5 10.9333 17.5 12.8333V17H15.5V13.1667C15.5 12.056 14.9033 11.6667 14.1667 11.6667Z" fill="white"/>
<path d="M19.3334 3.66667H4.66669C4.1144 3.66667 3.66669 4.11438 3.66669 4.66666V19.3333C3.66669 19.8856 4.1144 20.3333 4.66669 20.3333H19.3334C19.8856 20.3333 20.3334 19.8856 20.3334 19.3333V4.66666C20.3334 4.11438 19.8856 3.66667 19.3334 3.66667Z" stroke="black" stroke-width="0.666667" stroke-miterlimit="10"/>
<path d="M6.66669 10H8.66669V17H6.66669V10Z" stroke="black" stroke-width="0.666667" stroke-linecap="round" stroke-linejoin="round"/>
<path d="M7.66668 8.5C8.31101 8.5 8.83335 7.97767 8.83335 7.33333C8.83335 6.689 8.31101 6.16667 7.66668 6.16667C7.02235 6.16667 6.50002 6.689 6.50002 7.33333C6.50002 7.97767 7.02235 8.5 7.66668 8.5Z" stroke="black" stroke-width="0.666667" stroke-linecap="round" stroke-linejoin="round"/>
<path d="M14.1667 11.6667C13.4303 11.6667 12.8333 12.056 12.8333 13.1667V17H10.8333V10H12.8333V10.7367H12.8327C13.0827 10.4524 13.3905 10.2248 13.7355 10.069C14.0805 9.91325 14.4548 9.83289 14.8333 9.83333C16.306 9.83333 17.5 10.9333 17.5 12.8333V17H15.5V13.1667C15.5 12.056 14.9033 11.6667 14.1667 11.6667Z" stroke="black" stroke-width="0.666667" stroke-linecap="round" stroke-linejoin="round"/>
</svg>
