<svg width="24" height="22" viewBox="0 0 24 22" fill="none" xmlns="http://www.w3.org/2000/svg">
<g clip-path="url(#clip0_2_12)">
<path d="M16.5499 11.9053L15.493 11.2951C15.6544 11.0145 15.6425 10.6491 15.4598 10.2792C15.277 9.90935 14.9384 9.56516 14.5182 9.32221L14.9253 8.61714C15.6255 9.02213 16.1897 9.59576 16.4943 10.2122C16.7988 10.8286 16.8188 11.4375 16.5499 11.9053Z" fill="black"/>
<path d="M18.3603 12.9338L17.3034 12.3236C17.68 11.6687 17.6521 10.8162 17.2257 9.95322C16.7993 9.09021 16.0093 8.28713 15.0291 7.72016L15.4361 7.0151C16.6965 7.74403 17.7123 8.77657 18.2605 9.88616C18.8087 10.9958 18.8446 12.0918 18.3603 12.9338V12.9338ZM12.5823 13.5848L14.222 13.4785C14.4415 13.4643 14.6847 13.5082 14.9216 13.6049C15.1585 13.7015 15.3786 13.8467 15.5546 14.0223L16.774 15.2396C16.9537 15.419 17.0793 15.622 17.1346 15.8225C17.1899 16.023 17.1724 16.2118 17.0842 16.3645L16.0745 18.1134C16.0148 18.2175 15.924 18.3023 15.8075 18.3625C15.691 18.4226 15.5513 18.4569 15.397 18.4633C15.2427 18.4696 15.077 18.4479 14.91 18.3994C14.7431 18.3509 14.5784 18.2766 14.426 18.1812C4.56331 11.9276 5.81891 5.03964 6.70235 2.63447C6.74571 2.51699 6.824 2.41782 6.93207 2.34351C7.04013 2.2692 7.17553 2.22141 7.32935 2.2033C7.48317 2.18519 7.65192 2.19717 7.82452 2.23844C7.99711 2.27971 8.16963 2.34934 8.33073 2.44275L10.9058 3.92949C11.1347 4.06162 11.3319 4.23646 11.472 4.43146C11.6121 4.62646 11.6887 4.83267 11.6919 5.0235L11.7132 6.31808C11.7162 6.50493 11.6487 6.66872 11.5191 6.78913C11.3895 6.90955 11.2033 6.9813 10.9838 6.9955L9.3442 7.10176C9.3442 7.10176 8.22325 10.559 12.5823 13.5848Z" fill="black"/>
</g>
<defs>
<clipPath id="clip0_2_12">
<rect width="19.5263" height="13.0263" fill="white" transform="translate(6.51314) rotate(30)"/>
</clipPath>
</defs>
</svg>
