<svg width="16" height="16" viewBox="0 0 16 16" fill="none" xmlns="http://www.w3.org/2000/svg">
<g clip-path="url(#clip0_3_281)">
<path d="M8.00017 0C5.38401 0 3.24001 2.1376 3.24001 4.74656C3.24001 5.75744 3.56289 6.69696 4.10929 7.46912L7.41921 13.1912C7.88273 13.7968 8.19089 13.6818 8.57633 13.1592L12.2272 6.9464C12.3008 6.81296 12.3587 6.67088 12.4091 6.52576C12.6408 5.9612 12.7599 5.35681 12.7598 4.74656C12.76 2.1376 10.6166 0 8.00017 0ZM8.00017 2.224C9.40913 2.224 10.5294 3.34176 10.5294 4.74656C10.5294 6.15136 9.40913 7.26864 8.00017 7.26864C6.59137 7.26864 5.47057 6.15152 5.47057 4.74656C5.47057 3.34176 6.59137 2.22416 8.00017 2.22416V2.224Z" fill="#333333"/>
<path d="M11.0261 7.82528L11.0184 7.84544C11.0208 7.83936 11.0227 7.83312 11.0251 7.82704L11.0261 7.82528ZM10.2157 11.7366L9.9944 12.0102C10.2936 12.0464 10.5832 12.0888 10.8544 12.1402L9.97776 12.3998L11.1478 12.711L12.02 12.436C12.5557 12.6157 13.2974 12.8354 13.5432 13.0851H11.7944L11.9682 13.5933H13.7829C13.7774 13.8797 13.2654 14.1123 12.7765 14.3008L11.5363 14.0326L10.3678 14.4514L11.6158 14.7362C10.8872 14.9346 9.66384 15.0552 8.65104 15.1107L8.60848 14.5283H7.39152L7.3488 15.1107C6.336 15.0552 5.1128 14.9347 4.384 14.7363L5.63216 14.4514L4.46368 14.0326L3.22336 14.3008C2.74144 14.1544 2.22256 13.8797 2.21712 13.5933H4.032L4.20576 13.0851H2.45696C2.70272 12.8354 3.44448 12.6157 3.98016 12.436L4.85232 12.711L6.0224 12.3998L5.14576 12.1402C5.42887 12.0878 5.71361 12.0448 5.99952 12.011L5.78144 11.737C3.41584 11.9829 1.44976 12.5066 0.934244 13.3336C0.112004 14.6517 3.14528 15.9776 7.8992 15.9982C7.96992 16.0018 8.03968 15.9992 8.1056 15.9982C12.8568 15.9765 15.8874 14.651 15.0658 13.3336C14.5499 12.5062 12.5826 11.9824 10.2155 11.7366H10.2157Z" fill="#333333"/>
</g>
<defs>
<clipPath id="clip0_3_281">
<rect width="16" height="16" fill="white"/>
</clipPath>
</defs>
</svg>
