<svg width="28" height="32" viewBox="0 0 38 34" fill="none" xmlns="http://www.w3.org/2000/svg">
<path d="M36.1084 1.04671C35.6339 0.651969 35.0612 0.393287 34.4514 0.298196C33.8415 0.203106 33.2172 0.275167 32.6451 0.506708L2.77675 12.565C2.13817 12.8279 1.5946 13.2786 1.21816 13.8576C0.841711 14.4365 0.650184 15.1162 0.668988 15.8065C0.687791 16.4968 0.916035 17.165 1.32344 17.7226C1.73084 18.2802 2.29815 18.7007 2.95008 18.9284L8.99175 21.03L12.3584 32.1667C12.4046 32.3153 12.4713 32.4567 12.5567 32.5867C12.5701 32.6067 12.5884 32.62 12.6018 32.6417C12.7 32.7784 12.8186 32.8993 12.9534 33C12.9911 33.0295 13.03 33.0573 13.0701 33.0834C13.228 33.1881 13.4027 33.2648 13.5867 33.31L13.6084 33.3117L13.6184 33.3167C13.7298 33.3391 13.8431 33.3502 13.9567 33.35L13.9867 33.345C14.1574 33.3422 14.3267 33.313 14.4884 33.2584C14.5268 33.245 14.5584 33.225 14.5951 33.2084C14.7161 33.1588 14.8308 33.095 14.9368 33.0184C15.0212 32.9467 15.1056 32.875 15.1901 32.8034L19.6934 27.8317L26.4101 33.035C27.0013 33.4955 27.729 33.7459 28.4784 33.7467C29.2638 33.7458 30.025 33.4748 30.6344 32.9793C31.2437 32.4838 31.6641 31.7938 31.8251 31.025L37.2634 4.33004C37.3864 3.72947 37.3439 3.10676 37.1405 2.52846C36.9371 1.95016 36.5803 1.438 36.1084 1.04671ZM14.6167 21.56C14.3859 21.7904 14.2282 22.0838 14.1634 22.4034L13.6468 24.91L12.3401 20.5884L19.1151 17.06L14.6167 21.56ZM28.4534 30.4L20.5151 24.25C20.1829 23.9937 19.7664 23.872 19.3485 23.909C18.9306 23.9461 18.5419 24.1393 18.2601 24.45L16.8167 26.0417L17.3268 23.5634L29.1317 11.7584C29.4118 11.4766 29.582 11.104 29.6117 10.7077C29.6413 10.3115 29.5284 9.91775 29.2933 9.59742C29.0583 9.27709 28.7165 9.05128 28.3296 8.96069C27.9428 8.87011 27.5363 8.92071 27.1834 9.10337L10.2417 17.9234L4.03342 15.6517L33.9984 3.66671L28.4534 30.4Z" fill="black"/>
</svg>
